<?xml version="1.0" encoding="UTF-8" standalone="no"?>
<svg
   xmlns:dc="http://purl.org/dc/elements/1.1/"
   xmlns:cc="http://creativecommons.org/ns#"
   xmlns:rdf="http://www.w3.org/1999/02/22-rdf-syntax-ns#"
   xmlns:svg="http://www.w3.org/2000/svg"
   xmlns="http://www.w3.org/2000/svg"
   xmlns:sodipodi="http://sodipodi.sourceforge.net/DTD/sodipodi-0.dtd"
   xmlns:inkscape="http://www.inkscape.org/namespaces/inkscape"
   id="svg8"
   version="1.1"
   viewBox="0 0 751.995 176.64059"
   height="176.64059mm"
   width="751.995mm"
   sodipodi:docname="NightingleBirds.svg"
   inkscape:version="0.92.3 (2405546, 2018-03-11)">
  <sodipodi:namedview
     pagecolor="#ffffff"
     bordercolor="#666666"
     borderopacity="1"
     objecttolerance="10"
     gridtolerance="10"
     guidetolerance="10"
     inkscape:pageopacity="0"
     inkscape:pageshadow="2"
     inkscape:window-width="640"
     inkscape:window-height="480"
     id="namedview7"
     showgrid="false"
     inkscape:current-layer="svg8" />
  <defs
     id="defs2" />
  <metadata
     id="metadata5">
    <rdf:RDF>
      <cc:Work
         rdf:about="">
        <dc:format>image/svg+xml</dc:format>
        <dc:type
           rdf:resource="http://purl.org/dc/dcmitype/StillImage" />
        <dc:title />
      </cc:Work>
    </rdf:RDF>
  </metadata>
  <g
     transform="translate(-39.776292,43.052444)"
     id="layer1">
    <path
       id="path3601"
       d="m 741.53888,-32.896201 c -0.0802,0 -0.17123,0.01527 -0.26108,0.01832 -0.89577,0.02595 -2.29325,0.393505 -3.85009,1.131977 -2.96663,1.407188 -6.97381,4.100519 -9.60111,6.262969 -0.0242,0.01984 -0.0487,0.03816 -0.0727,0.058 -0.004,0 -0.008,0 -0.0107,0.01527 -0.26749,0.22148 -0.51916,0.436703 -0.75409,0.644445 -0.21142,0.187442 -0.41997,0.373053 -0.59638,0.546757 -0.79798,0.762742 -1.28258,1.375438 -1.28258,1.709262 0,0.888975 1.41364,0.581863 3.16627,-0.687796 0.31278,-0.22667 0.61608,-0.42785 0.90234,-0.609797 0.62841,-0.307874 1.14806,-0.496995 1.34486,-0.45914 0.17245,0.241018 0.35091,0.764573 0.44965,1.371774 0.18142,1.116562 0.44599,2.108721 0.78643,2.981669 1.6e-4,4.43e-4 0,9.74e-4 0,0 0.13815,0.383126 0.30436,0.741219 0.50091,1.080691 0.4575,0.851425 1.00609,1.556469 1.6557,2.091777 v 7.64e-4 c 0.81023,0.667799 1.79067,1.213945 2.17858,1.213945 1.11732,0 2.04144,-2.350198 2.30253,-5.855115 l 0.24131,-3.231692 2.72608,0.141955 c 0.84089,0.04427 1.42349,0.06106 1.83316,0.03816 0.74271,0 0.8929,-0.160729 0.8929,-0.53485 0,0 0,-0.01527 0,-0.01527 8e-5,0 0,-0.01527 0,-0.01527 0,-0.968194 -0.9647,-2.666161 -2.14158,-3.784554 -0.15111,-0.171262 -0.29709,-0.32268 -0.4291,-0.432276 -0.0169,-0.01527 -0.0287,-0.029 -0.0449,-0.04274 -0.69803,-0.757705 -0.73979,-1.233789 -0.16171,-1.875029 0,-7.64e-4 0,0 0.004,0 0.0487,-0.04884 0.0927,-0.09616 0.1499,-0.145008 0.0936,-0.07785 0.17548,-0.161035 0.24691,-0.247735 0,-7.63e-4 0,0 0,0 0.79847,-0.749004 0.71419,-1.194102 0.071,-1.314993 -0.0691,-0.03205 -0.15065,-0.05037 -0.24692,-0.05037 z m -628.11555,9.313935 c -0.53472,-0.01527 -1.97156,0.802734 -4.45351,2.41049 -2.06815,1.339721 -5.07877,2.997085 -6.6905,3.682896 -1.58997,0.676654 -2.400856,0.971554 -3.050248,1.001777 -4.88e-4,0 -0.0011,0 -0.0015,0 -8.09e-4,0 -0.0015,0 -0.0031,0 -0.388727,0.01832 -0.719971,-0.05953 -1.12639,-0.206675 -2.24831,-0.81296 -3.700649,-0.57759 -4.689343,0.759689 -0.309691,0.418843 -0.54062,0.693595 -0.828224,0.873863 -0.431116,0.23934 -0.958839,0.31047 -1.932528,0.329703 -0.221878,0 -0.474711,0 -0.743036,0 -1.360846,-0.01679 -3.339228,-0.292459 -4.47638,-0.630251 -0.59728,-0.177673 -1.16275,-0.309858 -1.594934,-0.380836 -0.118754,-0.0229 -0.20669,-0.02748 -0.297374,-0.03359 -0.240621,-0.02443 -0.430154,-0.02747 -0.47564,0.01679 -0.173888,0.173856 0.148671,0.65574 0.716216,1.228903 0.0046,0 0.0061,0 0.01068,0.01527 0.0061,0.01527 0.0092,0.01527 0.01572,0.02137 0.164469,0.198127 0.392376,0.404802 0.660214,0.614529 0.182618,0.155082 0.373082,0.308027 0.575819,0.456698 0.783531,0.609338 1.664523,1.180975 2.401072,1.497856 0.585617,0.252008 1.39696,0.514549 2.204654,0.732823 0.660427,0.194311 1.317511,0.338861 1.945946,0.421134 1.816506,0.267731 2.161518,0.494859 3.292412,2.105363 0.701594,0.9991805 2.033881,2.3276056 2.961108,2.9531248 1.427229,0.963005 1.646023,1.1521265 1.679328,2.6551714 0.0015,0.2080483 0.0031,0.4254075 0.0046,0.6838269 6.1e-5,0.044265 0.0031,0.083952 0.0031,0.1282175 0.0015,0.291695 0.0061,0.5809476 0.01893,0.8479148 0.03892,0.91171827 0.135849,1.63614739 0.250054,1.75032201 0.02198,0.0213694 0.06563,0.0427396 0.124554,0.0610557 0.26152,0.0900576 0.89129,0.14348153 1.65251,0.17187255 0.0607,0 0.11738,0 0.17984,0 0.26926,0.0152637 0.541,0.0152637 0.83454,0.0152637 0.0911,4.4268e-4 0.17928,9.2925e-4 0.27135,7.7854e-4 0.30548,-6.1057e-4 0.60282,0 0.91183,-0.0152637 0.003,0 0.008,1.5266e-4 0.0107,0 0.006,-1.5258e-4 0.0107,-6.1057e-4 0.0157,-7.7846e-4 1.56832,-0.0381597 3.0708,-0.15905074 3.37681,-0.35259816 0.65161,-0.41243312 0.73989,-0.25857205 -2.23543,-3.86102698 -0.78044,-0.9449937 -1.32477,-1.6514114 -1.71245,-2.2622766 -0.0629,-0.1068478 -0.13081,-0.2158328 -0.18852,-0.3202379 -0.11479,-0.2080491 -0.21846,-0.4116706 -0.31237,-0.6105599 -0.005,-0.015266 -0.009,-0.021373 -0.0153,-0.033586 -0.006,-0.015266 -0.0122,-0.02748 -0.0182,-0.041215 -0.26506,-0.6603203 -0.33839,-1.2866023 -0.33839,-2.1233744 0,-1.4528268 0.18625,-1.7443688 1.9341,-3.0274598 2.54152,-1.865565 5.57864,-5.115727 7.67965,-8.218286 1.50485,-2.222285 2.05739,-3.311065 1.45138,-3.328771 z m 326.31162,2.098952 c -0.24192,-0.01527 -0.42063,0.07632 -0.53638,0.26422 -0.63118,1.021313 -1.31012,6.631594 -1.17134,9.684087 l 0.14043,3.0723363 -1.75897,0.2017903 c -0.083,0.015266 -0.15847,0.022895 -0.23743,0.035108 -0.27607,0.030524 -0.53075,0.085474 -0.7746,0.1680565 -0.77028,0.2327754 -1.38427,0.6468877 -2.11787,1.3929917 -0.75402,0.7667105 -1.37096,1.6101989 -1.37096,1.8748769 0,0.5301181 0.89513,0.9718577 1.97121,0.9718577 0.38177,0 1.89934,1.1927287 3.37207,2.6510505 l 2.67795,2.6519661 1.11534,-0.079373 c 0.43644,0.051898 0.91187,0.015264 1.48135,-0.1053215 l 1.16658,-0.082426 3.14334,-0.22331226 c 0.56484,0.19217376 1.14574,0.50890156 1.7803,0.95048886 l 0.4559,0.391216 c 0.88826,0.7618259 1.97786,1.599056 2.4224,1.8608334 h 8.1e-4 c 1.4421,0.8479148 4.80291,-0.3776311 5.02615,-1.761312 l 0.22403,-0.2004163 -0.3092,-0.2564351 c -0.57238,-0.9933806 -3.52812,-2.63471771 -6.55718,-3.5723848 -3.08039,-0.9535416 -3.42772,-1.689266 -0.70675,-1.4970923 2.07688,0.1465343 2.20879,-0.3809893 0.52848,-2.1210842 -0.93658,-0.9700266 -1.36141,-2.0229377 -2.00274,-4.9701098 -1.0315,-4.740232 -1.72941,-6.190159 -4.11275,-8.536234 -1.83353,-1.805273 -3.12429,-2.730271 -3.85007,-2.764004 z m 90.85742,14.0459262 c -0.51771,-0.015266 -2.03859,0.8744733 -4.77613,2.5927421 -2.2856,1.434815 -5.36423,3.1046958 -6.84119,3.7112868 -2.36419,0.97094264 -2.8441,1.04558358 -4.01411,0.62246569 -2.21688,-0.80151219 -3.37462,-0.60765959 -4.3644,0.73114526 -0.0885,0.12058552 -0.16776,0.22209101 -0.24607,0.31947529 -0.83075,0.82639256 -1.29668,0.88897496 -3.79015,0.87401626 -0.1134,-7.632e-4 -0.23245,0 -0.34941,-0.015264 -1.38657,-0.077846 -3.03868,-0.3350447 -3.98969,-0.64215621 -1.13861,-0.36816747 -2.18824,-0.55118278 -2.33245,-0.40617488 -0.38601,0.38602638 1.03165,1.84526409 3.04865,3.13781899 1.1176,0.7163392 2.11206,1.1205297 4.25394,1.6098932 0.444,0.1205856 0.8727,0.2132381 1.27705,0.2753624 0.50305,0.1037952 1.0453,0.2101852 1.66195,0.3280232 0.51348,0.09769 1.26995,0.8564627 1.80555,1.8095464 0.50696,0.9019494 1.78985,2.2638028 2.85148,3.0265443 l 1.68406,1.209213 c 0.23004,0.433956 0.24659,1.012156 0.24688,2.150239 0,0.01527 0,0.02137 0,0.03358 v 0.417318 2.423921 h 3.64738 c 2.78983,0 3.69956,-0.135849 3.86902,-0.577436 0.004,0 0,-0.01527 0.004,-0.0229 0.206,-0.238423 0.0739,-0.506306 -0.46066,-1.184791 -0.0343,-0.04274 -0.15717,-0.198737 -0.19954,-0.252466 -0.35253,-0.540193 -0.8214,-1.176701 -1.38039,-1.854422 -1.65801,-2.010115 -2.61149,-3.696023 -2.93114,-5.1941839 -0.0566,-0.5710259 -0.0956,-0.9823905 -0.0347,-1.3322413 0.29584,-0.5379031 1.36318,-1.620578 2.63535,-2.6432655 3.43479,-2.76095095 4.38232,-3.78699654 6.93031,-7.5060686 1.67933,-2.4512446 2.38124,-3.6308461 1.79451,-3.6482471 z m 155.7258,2.4074367 c -0.37895,0 -1.37201,0.9918545 -2.2094,2.2077841 -0.60164,0.873711 -1.04357,1.7376529 -1.33936,2.62357503 l -0.14363,0.21690133 0.0158,0.20041623 c -0.0461,0.16561431 -0.0872,0.33229717 -0.12303,0.50004842 -0.0213,0.0885311 -0.0383,0.17874135 -0.0545,0.26742512 -0.009,0.0473187 -0.0169,0.0946368 -0.0243,0.14195517 -0.009,0.061056 -0.0194,0.1236383 -0.0263,0.1853048 -0.17766,1.2603479 -0.0841,2.5953367 0.2745,4.0898342 0.0263,0.1099007 0.0458,0.201332 0.0687,0.3013111 0.0789,1.0065077 0.0771,1.7561225 -0.0122,2.3269958 -0.0598,0.1160063 -0.12761,0.2359813 -0.21211,0.3652673 -0.71007,1.0835908 -0.50144,1.5813496 0.51427,1.2296673 0.36695,-0.1266912 -0.40297,0.8705052 -1.71091,2.2164842 -0.65288,0.671921 -1.14778,1.233788 -1.50341,1.699035 -0.561,0.64124 -0.75478,1.061152 -0.64286,1.352847 v 8.1e-4 c 0,0 0.006,0.01527 0.009,0.01679 0,0 0,0.01527 0.004,0.01679 0.0644,0.167751 0.1979,0.301174 0.39438,0.402984 0.24296,0.145008 0.55962,0.235966 0.89374,0.235966 0.0307,0 0.0706,-0.01527 0.10333,-0.01527 0,0 0,1.54e-4 0,0 0.11128,0 0.22867,0.01527 0.35261,0.01527 0.85659,0 1.36174,-0.140429 2.15182,-0.814028 0.47852,-0.256878 0.81955,-0.522029 0.82665,-0.710691 0,-0.0229 0.0137,-0.06106 0.0348,-0.105322 0.22227,-0.226823 0.46117,-0.477305 0.73514,-0.769931 1.91114,-2.040781 2.65554,-2.52877 4.97175,-3.2646476 2.90218,-0.9219451 4.09696,-1.9849448 4.54973,-4.0464844 0.0299,-0.1358495 0.0773,-0.2773467 0.13325,-0.4197598 0.27839,-0.4768471 0.53887,-0.8854641 0.75566,-1.1808224 0.0672,-0.065635 0.13433,-0.1251648 0.20109,-0.1718726 0.37765,-0.2645249 0.60858,-0.6242972 0.62792,-0.9387355 0.0545,-0.1569139 0.023,-0.2796364 -0.11036,-0.3927425 -0.50996,-0.7140496 -2.64156,-1.0422255 -3.92422,-0.5545409 -1.23109,0.467994 -1.31275,0.3939637 -1.72747,-1.57280173 -0.4361,-2.06796577 -1.61601,-4.16645937 -2.73394,-5.12091687 -0.32761,-0.334129 -0.62949,-0.5331714 -0.86607,-0.5331714 -0.0343,0 -0.0735,0.015266 -0.11205,0.01832 -0.0484,0 -0.0975,-0.01832 -0.14439,-0.01832 z m -391.93174,2.1557339 c -0.84544,0.042739 -1.59104,0.4750155 -2.58723,1.3133139 -1.75873,1.47984411 -1.65371,2.50680551 0.27214,2.6661616 1.28493,0.1068479 1.5321,0.281468 1.63437,1.1594528 0.10334,0.8883644 -0.18273,1.1884545 -2.02481,2.1203212 -1.18892,0.601554 -2.81848,1.0854226 -3.65446,1.0854226 -1.07182,0 -1.50818,0.1755358 -1.50818,0.6058278 0,0.336571 0.359,0.6064384 0.80772,0.6064384 1.29468,0 0.93229,0.7032122 -0.62709,1.217914 -0.78892,0.2602511 -1.36508,0.6836742 -1.28098,0.940262 0.21415,0.6529936 2.10187,0.8088389 3.12991,0.2587246 0.79824,-0.4272391 0.82534,-0.397169 0.3865,0.4228126 -0.75463,1.4100877 0.0836,1.6970507 1.71641,0.5876637 0.5586,-0.3796155 1.08013,-0.7001593 1.4009,-0.8708107 0.17104,-0.015264 0.312,0.027475 0.42041,0.1083743 0.003,0 0.004,0.015264 0.008,0.015264 0.0502,0.2049954 0.0843,0.5142438 0.0939,0.8827164 8e-4,0.07479 0.003,0.135849 0.003,0.218428 0,0.698785 0.0177,1.039783 0.35576,1.272254 0.16381,0.188052 0.39339,0.339929 0.71306,0.488295 0.58477,0.268188 1.22783,0.391826 1.42849,0.268188 0.20066,-0.123638 0.62178,-0.01527 0.9355,0.247735 0.31372,0.260557 0.75028,0.361451 0.971,0.225601 0.22071,-0.135849 0.60727,0.13585 0.8582,0.604913 0.41927,0.7835 0.51355,0.800595 1.16268,0.213085 0.9119,-0.825782 1.11081,-0.806244 1.35672,0.134323 0.0674,0.257809 0.16222,0.429223 0.38255,0.538819 0.1157,0.20408 0.24846,0.289405 0.41491,0.257046 0.20794,0.07327 0.42119,0.04732 0.59554,-0.09616 0.31695,0.01527 0.75448,0 1.24471,-0.01679 0.12212,0.03968 0.26172,0.05037 0.42042,0.03663 0.1183,0.01679 0.23386,0 0.35417,-0.06258 1.68942,-0.08243 2.29363,-0.261472 2.77022,-0.810213 0.0914,-0.08853 0.18031,-0.181046 0.26109,-0.282399 l 0.20353,-0.255519 c 0.56416,-0.524318 1.00223,-0.04427 2.80728,2.382862 0.92555,1.244931 2.54596,2.835286 3.60081,3.533919 v 8.09e-4 c 3.2942,2.181987 3.43493,1.688502 0.44094,-1.545327 -1.68707,-1.822368 -2.64986,-3.458057 -4.50083,-7.6464963 -1.295,-2.930534 -2.86616,-6.033551 -3.49117,-6.8964245 -1.1219,-1.5486846 -4.13592,-3.64214121 -5.24385,-3.64183597 -0.18137,0 -0.73214,-0.20346897 -1.41352,-0.49928523 -0.7325,-0.3443556 -1.45491,-0.6923747 -1.98539,-0.9622421 -0.6524,-0.3318392 -1.21123,-0.5583568 -1.718,-0.680774 -0.40374,-0.1114271 -0.76845,-0.1627142 -1.11455,-0.1450079 z M 181.24733,11.528276 c -0.29754,0 -0.54033,0.1966 -0.54033,0.437008 0,0.240408 -1.52958,2.026905 -3.3989,3.970011 -1.27968,1.330257 -2.16656,2.336917 -2.77574,3.169263 -0.0736,0.09922 -0.14013,0.198127 -0.20429,0.29429 -0.45065,0.658336 -0.72716,1.213487 -0.86767,1.735363 -0.31457,1.168153 -0.96904,2.308221 -1.50501,2.731491 -0.24312,0.06258 -0.52481,0.06106 -0.85268,0 -0.26593,-0.117532 -0.60966,-0.282537 -0.96942,-0.468604 -1.14843,-0.594075 -1.36397,-0.588885 -2.80651,0.06106 -0.78599,0.354582 -1.24932,0.624297 -1.41587,0.902407 l -0.28398,0.13585 0.22875,0.212169 c 0.0653,0.277194 0.3749,0.591785 0.91816,1.019177 0.19528,0.153556 0.36845,0.337944 0.51666,0.535613 3.4e-4,4.12e-4 4e-4,0.0012 8e-4,0 0.19517,0.332297 0.35743,0.70886 0.47881,1.105876 0.006,0.05343 0.0137,0.106849 0.0137,0.157677 0,2.420107 1.72737,4.224005 5.58303,5.829167 5.75911,2.397515 6.48946,3.471947 6.91689,10.169177 0.0417,0.653604 0.86387,0.238729 2.22438,-1.121751 2.30154,-2.301505 3.94423,-6.178101 2.94061,-6.940538 -0.27553,-0.209268 -1.37227,-0.702296 -2.43658,-1.095649 -1.0643,-0.393353 -2.20366,-1.125262 -2.532,-1.626378 -0.54978,-0.839062 -0.48201,-1.154111 0.85898,-3.97795 0.41692,-0.877679 0.76749,-1.742079 1.06014,-2.601441 l 0.52928,-1.069549 v -0.735114 c 0.59519,-2.461166 0.68815,-4.918668 0.30526,-7.545602 -0.51022,-3.500643 -1.18291,-5.292025 -1.98616,-5.292025 z m 559.56747,3.754636 c -0.47361,0.01527 -0.92249,0.15615 -1.35829,0.44174 -0.54659,0.358093 -2.0048,1.029709 -3.24114,1.49236 -3.16841,1.185402 -4.64641,2.908249 -6.83327,7.967652 -1.03069,2.384388 -2.59516,5.288668 -3.47699,6.453769 -0.88179,1.1651 -1.60285,2.210837 -1.60285,2.322263 0,0.112954 0.52414,-0.06716 1.16506,-0.39839 1.168,-0.603843 4.39473,-3.992755 4.48111,-4.692457 0.15248,-0.153861 0.28335,-0.273377 0.39757,-0.366793 0.35482,-0.02747 0.86789,0.162409 1.17369,0.530882 0.69552,0.838298 4.73889,0.858905 5.0585,0.02595 0.089,-0.231707 0.17217,-0.363435 0.27609,-0.410906 0.0689,0 0.14118,0 0.21772,0.01527 0.0959,0.03968 0.20713,0.11448 0.34864,0.231097 0.46917,0.389537 0.72214,0.357635 1.23602,-0.156151 0.35527,-0.355345 0.98767,-0.646125 1.40563,-0.646125 1.4711,0 2.81754,-0.899201 2.81754,-1.882049 0,-0.250483 0.0169,-0.44052 0.0545,-0.584459 0.008,-0.01984 0.0137,-0.04732 0.0221,-0.06563 0.11463,-0.10227 0.23549,-0.181032 0.36044,-0.228655 0.2138,0.03968 0.51925,0.226365 0.95207,0.553625 0.31352,0.23705 0.60259,0.3903 0.85896,0.478831 0.0484,0.01984 0.0933,0.03511 0.13493,0.04579 0.038,0.01527 0.0729,0.01527 0.10883,0.01984 0.008,3.06e-4 0.0158,0 0.023,0 0.43452,0.06563 0.71621,-0.13127 0.71621,-0.604302 0,-0.416554 0.2222,-0.562936 0.60578,-0.416401 0.67652,0.25964 1.81738,-0.07174 1.81738,-0.528592 0,-0.162714 -0.49594,-0.521265 -1.10194,-0.797391 -0.98379,-0.448304 -1.02673,-0.544619 -0.39593,-0.897676 1.01356,-0.567209 0.45889,-1.153194 -1.09173,-1.153194 -1.49594,0 -4.07409,-1.541663 -4.07409,-2.435828 0,-0.334434 0.51719,-0.675279 1.20608,-0.794338 0.50313,-0.08701 0.86139,-0.251551 1.07274,-0.469215 0.24982,-0.126692 0.32402,-0.284064 0.22163,-0.513481 0.0122,-0.410296 -0.29065,-0.901339 -0.92996,-1.404135 -0.97843,-0.76961 -1.83654,-1.142968 -2.62586,-1.128772 z m -113.75911,1.733074 c -2.64075,0.02595 -4.05273,0.349546 -9.31483,2.134364 -6.70443,2.274029 -11.66451,4.557675 -12.0432,5.544493 0,0 -0.004,0.01527 -0.004,0.01527 -0.0319,0.08395 -0.0579,0.162867 -0.0773,0.236592 -0.0107,0.03968 -0.0152,0.07479 -0.0221,0.111427 -0.006,0.03052 -0.0137,0.06411 -0.0174,0.09311 0,0.01679 0,0.03205 -0.004,0.04732 -0.0766,0.174468 -0.0484,0.30757 0.0836,0.393659 0.32083,0.486311 1.55527,0.328633 3.88635,-0.460668 1.06796,-0.361756 2.02125,-0.667494 2.67323,-0.863789 0.40378,-0.07174 0.70521,-0.09311 0.86761,-0.05037 0.0821,0.443113 0.0627,1.796266 -0.063,3.404481 -0.3189,4.076402 0.25353,5.964404 2.62582,8.666437 0.72145,0.82166 1.54908,1.493886 1.83945,1.493886 1.36165,0 4.12898,-4.7355 5.07353,-8.682921 0.26573,-1.110609 0.59888,-2.15085 0.74065,-2.311885 0.1418,-0.161036 1.3444,0.143481 2.6716,0.677568 1.32725,0.533629 2.93933,1.100381 3.58268,1.259585 l 1.16978,0.289558 -0.20508,-1.818247 c -0.164,-1.455269 -1.109,-3.907429 -2.62823,-6.823767 0,-0.04579 0,-0.09006 0,-0.134323 0.11661,-0.236898 0.73224,-0.747936 1.52316,-1.247222 0.25697,-0.162103 0.47162,-0.31169 0.65473,-0.451966 0.10792,-0.07632 0.20051,-0.151113 0.26578,-0.220717 1.05824,-0.957358 0.042,-1.331326 -3.27974,-1.298356 z m -67.79719,3.571621 c -3.38818,0 -7.61902,0.534393 -9.0198,1.25409 -1.45071,0.745188 -3.36653,2.871767 -3.04943,3.38479 0.14837,0.240256 1.31479,0.436856 2.59194,0.436856 3.35469,0 3.64688,0.343592 4.30598,5.063372 0.66693,4.776103 1.35596,7.871793 1.90731,8.566915 0.0983,0.123639 0.19082,0.214307 0.28318,0.288795 0.0773,0.07632 0.1584,0.126691 0.25004,0.145008 0.41748,0.11448 0.95278,-0.270478 2.13052,-1.334531 1.86462,-1.684534 3.78631,-5.168083 4.68223,-8.488153 0.35964,-1.3327 0.83138,-3.085159 1.04831,-3.89354 0.51397,-1.915326 2.00306,-2.616859 6.34579,-2.991132 0.91435,-0.07938 1.62535,-0.168362 2.15972,-0.269714 0.11235,-0.01679 0.21228,-0.03816 0.29738,-0.06106 0.58333,-0.134323 0.87475,-0.288031 0.87475,-0.46372 0,-0.738471 -1.36811,-0.998723 -5.3748,-0.998723 -1.95654,0 -4.86434,-0.209574 -6.46176,-0.458988 -0.80602,-0.125165 -1.84196,-0.181947 -2.97136,-0.17981 z m 119.2396,14.026236 c -0.0417,0 -0.0792,8.09e-4 -0.11279,0 -0.0525,0.01527 -0.10502,0.03053 -0.15695,0.06106 -2.3e-4,1.53e-4 0,-1.52e-4 0,0 -0.15442,0.03816 -0.27809,0.120586 -0.36363,0.259489 -0.0737,0.119059 -0.14883,0.301463 -0.22402,0.529355 -0.51847,1.106181 -0.91228,3.145603 -0.95444,5.302253 -0.004,0.145007 0,0.27872 0.004,0.414112 l -0.12852,0.798154 0.30685,0.593311 c 0.017,0.05953 0.0364,0.123638 0.0583,0.190801 0.22808,0.787774 0.64074,1.665149 1.36067,2.976936 0.89985,1.639505 1.56798,3.183306 1.48924,3.438366 0,0 0,0 -0.004,0 -0.0922,0.250635 -1.32404,0.841199 -2.74814,1.31652 -0.60457,0.20179 -1.11323,0.402817 -1.5255,0.597891 -0.5395,0.195531 -0.9304,0.361756 -1.03173,0.449525 -0.0907,0.07938 -0.13692,0.1995 -0.15143,0.346339 -0.0552,0.05647 -0.0931,0.109901 -0.0931,0.15264 0,0.09769 0.0303,0.219802 0.0844,0.361298 0.21748,1.067107 1.85311,3.094623 3.294,3.973218 0.69618,0.424492 1.44352,0.712981 1.6612,0.64124 0.21768,-0.07174 0.70829,-1.003454 1.0901,-2.07056 1.03699,-2.898632 1.99725,-3.693734 5.36217,-4.442433 3.25334,-0.723818 5.24279,-1.965086 6.50752,-4.060679 0.21848,-0.362063 0.49488,-0.77587 0.76826,-1.160369 0.32163,-0.398848 0.62347,-0.778616 0.84716,-1.088476 0.23743,-0.267425 0.38627,-0.496232 0.45278,-0.688711 0.0742,-0.134323 0.12547,-0.24514 0.12547,-0.302074 0,-0.029 -0.0487,-0.05038 -0.11677,-0.07174 -0.18877,-0.417164 -1.17612,-0.471962 -2.9359,-0.146534 -0.74261,0.137376 -1.37761,0.245292 -1.87334,0.32497 l -0.75805,0.06411 -1.10352,-1.102823 c -0.26746,-0.323292 -0.55142,-0.677416 -0.85108,-1.07428 -1.88337,-2.494594 -6.98798,-6.535126 -8.27995,-6.597403 z m 39.21859,21.614271 c -0.88684,0.01527 -1.92274,0.208354 -3.46988,0.578963 -2.96886,0.711302 -5.74136,1.884034 -14.72749,6.251216 -0.10318,0.04274 -0.25382,0.1099 -0.34152,0.145007 -2.37632,0.935989 -3.34902,1.699646 -3.10074,2.010574 -0.26953,0.570262 0.99791,0.572704 3.49276,-0.375495 2.10713,-0.800901 4.67306,-1.041004 5.93879,-0.555303 0.0169,0 0.0418,0.02747 0.0615,0.03816 0.0708,0.04732 0.14089,0.100742 0.21062,0.155388 0.48009,0.414417 1.31226,1.423824 2.06504,2.532907 2.23638,3.294885 5.30026,6.202218 7.7735,7.377545 0.1331,0.06258 0.27022,0.116006 0.40625,0.174315 0,8.09e-4 0.004,0 0.006,0 0.9971,0.429071 2.02431,0.72855 2.41452,0.677568 0.28836,-0.03663 0.46933,-0.108374 0.57974,-0.309095 h 0.14196 l -0.0356,-0.375495 c 0.0513,-0.362977 0.04,-0.91706 -0.009,-1.811836 -0.0714,-1.314229 -0.57121,-4.08846 -1.11061,-6.164363 -0.52813,-2.032706 -0.95626,-3.948947 -0.97415,-4.348559 0.009,-0.155387 0.0363,-0.308027 0.0812,-0.458377 0.38003,-0.967127 1.94741,-2.160924 3.50061,-2.57931 1.92553,-0.518518 2.13371,-1.27958 0.55135,-2.015305 -1.42054,-0.660626 -2.3154,-0.964379 -3.45563,-0.952931 z m -85.51655,11.489513 c -0.8624,-0.01527 -1.64213,0.414264 -2.61087,1.269964 -0.16733,0.128217 -0.33331,0.263609 -0.49696,0.412585 -0.33661,0.306501 -0.57783,0.591633 -0.7304,0.851884 -0.71154,0.949267 -0.4258,1.428251 0.8661,1.460764 0.14364,0.029 0.29758,0.0519 0.47011,0.06563 0.43297,0.03511 0.74027,0.08242 0.97179,0.157676 0.13662,0.05495 0.25431,0.119059 0.351,0.192479 0.18465,0.168514 0.26574,0.416707 0.31159,0.810824 0.004,0.03663 0.004,0.06869 0.006,0.103794 -0.15311,0.567669 -0.79864,1.244322 -1.94829,1.881287 -0.99709,0.552405 -2.63043,1.099619 -3.63002,1.217152 -0.0194,0 -0.0336,0 -0.0528,0.01527 -0.82601,0.01527 -1.36985,0.194005 -1.52233,0.420371 -0.43865,0.274446 -0.27549,0.58629 0.66651,0.720155 0.37677,0.05343 0.6241,0.137375 0.75568,0.241324 0.0739,0.06868 0.10837,0.143481 0.10486,0.224075 -0.043,0.241476 -0.51055,0.536682 -1.38669,0.825782 -0.84548,0.279179 -1.24289,0.595448 -1.23839,0.85112 -0.0513,0.126692 0.0872,0.242087 0.37231,0.403123 0.43315,0.244834 0.96151,0.269561 1.65409,0.07632 1.13926,-0.03358 1.32389,0.08243 1.15953,0.710691 -0.0314,0.120586 -0.0467,0.225144 -0.0481,0.316423 -0.0356,0.09922 -0.0607,0.185 -0.0607,0.226365 0,0.204843 0.19785,0.259793 0.49299,0.204995 0.36339,-0.01527 0.94426,-0.262693 1.70304,-0.762741 1.39925,-0.922404 1.93509,-0.734657 1.6091,0.564004 -0.14028,0.558815 -0.0672,0.867911 0.39202,1.198986 0.055,0.09006 0.12578,0.13585 0.2154,0.138903 0.1302,0.07784 0.27448,0.15844 0.4504,0.246208 0.71112,0.355193 1.4602,0.541567 1.66512,0.414875 0.20489,-0.126691 0.64138,0 0.97015,0.265746 0.32886,0.27231 0.70687,0.38679 0.84006,0.253993 0.13326,-0.132796 0.54608,0.13127 0.91661,0.589343 0.61157,0.755263 0.7232,0.772205 1.21077,0.184542 0.44437,-0.535461 0.812,-0.719545 1.03017,-0.563242 0.0539,0.120586 0.10593,0.23705 0.17591,0.420523 0.008,0.01984 0.0154,0.03358 0.023,0.0519 0.008,0.07174 0.0174,0.141955 0.0174,0.227128 0,0.359162 0.0661,0.55103 0.46541,0.639714 0.028,0.01527 0.0562,0.02595 0.0851,0.03511 0.20605,0.165614 0.41654,0.174468 0.61527,0.0229 0.36602,0 0.87735,-0.01527 1.50814,-0.03511 0.16655,0.04427 0.34575,0.058 0.51904,0.03816 0.12547,0.01679 0.24458,-0.01527 0.36913,-0.07938 1.85756,-0.1099 2.37797,-0.310011 2.89095,-0.989869 l 0.45434,-0.602638 c 0.0885,-0.06411 0.17184,-0.112954 0.24058,-0.131271 0.0541,0.01679 0.10913,0.03816 0.16644,0.06716 l 1.9325,2.459349 c 1.16352,1.480607 2.95391,3.22284 3.97786,3.872155 v 0 c 1.02399,0.649497 1.95404,1.088643 2.06663,0.975689 0.11265,-0.112954 -0.44417,-0.882717 -1.23683,-1.711567 -1.94958,-2.038796 -3.10631,-3.999319 -5.18075,-8.776932 -3.00096,-6.911704 -4.69487,-8.991408 -8.25307,-10.137429 -1.11905,-0.360551 -2.79347,-1.089238 -3.72153,-1.619509 -0.12074,-0.06869 -0.22548,-0.117533 -0.33993,-0.178131 -0.4291,-0.396711 -0.97213,-0.611629 -1.57602,-0.654825 -0.22875,-0.05343 -0.44772,-0.08243 -0.66104,-0.08548 z m -55.70738,12.928296 c -0.23903,0.02443 -0.40704,0.157677 -0.40704,0.350155 0,0.256588 -1.51973,2.045986 -3.37679,3.976424 -1.85707,1.930437 -3.47553,3.869116 -3.59686,4.308261 -0.11493,0.415944 -0.30665,1.201124 -0.44094,1.796873 -0.31694,0.729166 -0.63543,1.251196 -0.96785,1.577542 -0.55773,0.315505 -1.30511,0.267883 -2.16916,-0.179054 -1.18659,-0.613761 -1.37159,-0.608115 -2.82625,0.08854 -0.85599,0.409838 -1.55644,0.848217 -1.561,0.974906 -0.004,0.126697 0.42287,0.601556 0.94494,1.055512 0.57049,0.495922 1.05594,1.49159 1.21635,2.494895 0.37744,2.360579 1.95994,3.906203 5.44104,5.314003 0.8658,0.35016 1.60898,0.67605 2.26541,0.99705 0.65559,0.35 1.2176,0.66993 1.6809,0.95369 0.86738,0.59148 1.47144,1.22264 1.89625,1.9979 0.0516,0.0992 0.10043,0.20194 0.14912,0.30528 0.44268,0.94332 0.67013,2.09315 0.81321,3.62535 v 8.1e-4 c 0.04,0.42923 0.0972,0.81784 0.16013,1.17609 0.0243,0.24957 0.0647,0.448 0.12075,0.60186 0.12318,0.50814 0.25914,0.83524 0.37784,0.83524 0.88132,0 3.82916,-3.61557 4.46217,-5.47335 0.36351,-1.06696 0.66101,-2.16566 0.66101,-2.44133 0,-0.27582 -0.87142,-0.79067 -1.93647,-1.14449 -1.01895,-0.3384 -1.80865,-0.6533 -2.38924,-0.99552 -0.30636,-0.20255 -0.57773,-0.41685 -0.78643,-0.62308 -0.85119,-0.94988 -0.5371,-2.231433 0.65784,-4.582852 1.64383,-3.234894 2.17523,-6.05202 1.91676,-10.164293 -0.19362,-3.080579 -0.74302,-5.414901 -1.44979,-6.360048 -0.0238,-0.03816 -0.0467,-0.08547 -0.071,-0.120586 -0.17886,-0.257808 -0.30928,-0.370914 -0.46694,-0.31169 -0.0194,0 -0.0388,-0.01679 -0.0585,-0.01984 -0.0916,-0.01832 -0.17983,-0.0229 -0.25948,-0.01527 z m 113.30239,18.418146 c -0.36258,4.07e-4 -0.80626,0.183471 -1.43956,0.506454 -4.97247,2.536877 -7.52256,6.155367 -7.95255,11.284367 -0.12654,1.5087 -0.21191,2.25479 -0.4701,2.75683 -0.0137,0.0274 -0.0282,0.055 -0.0434,0.0809 -0.21498,0.36939 -0.54012,0.60934 -1.07826,0.95767 -1.8336,1.18707 -1.80534,2.06048 0.0568,1.75826 1.98635,-0.32238 1.75711,0.23811 -0.50482,1.23439 -1.52562,0.67208 -2.62433,1.16113 -3.58817,1.59723 -0.36062,0.13432 -0.66759,0.24559 -0.82113,0.29184 -0.45095,0.13586 -1.02585,0.46128 -1.55155,0.83067 -1.21929,0.63163 -1.3997,0.90073 -1.34178,1.26203 -0.0419,0.0779 -0.0679,0.14959 -0.0679,0.20667 0,0.12669 0.21554,0.3294 0.52931,0.53791 0.19736,0.19674 0.4345,0.38037 0.68546,0.50721 1.94038,0.98178 4.46846,0.6504 6.87583,-0.9024 2.95912,-1.90831 4.57549,-2.28487 8.43215,-1.96326 1.64404,0.13738 2.78885,0.14654 3.72626,-0.0672 l 0.80299,0.0213 0.37623,-0.4016 h 0.0663 l 0.20903,-0.23033 c 0.67946,-0.4396 1.32369,-1.08878 2.11235,-2.024 0.92213,-1.09352 2.15952,-2.09834 2.75997,-2.24183 1.55232,-0.37061 1.74404,-0.53408 1.38435,-1.17685 -0.78599,-1.40444 -3.08023,-2.60617 -4.97571,-2.60617 h -0.59395 c -0.61677,0 -1.03202,-0.0274 -1.30306,-0.0901 l 0.0474,-3.72548 c 0.0137,-0.16043 0.0287,-0.31291 0.0409,-0.47563 0.0815,-1.08084 0.0581,-2.14062 -0.0528,-3.11416 -0.0657,-1.5554 -0.25596,-2.30242 -0.68386,-3.09523 -0.65372,-1.210746 -1.03242,-1.717811 -1.63676,-1.7172 z"
       style="fill:#65263B;stroke-width:0.40385988" />
  </g>
</svg>
