<?xml version="1.0" encoding="UTF-8" standalone="no"?>
<!-- Created with Inkscape (http://www.inkscape.org/) -->

<svg
   xmlns:dc="http://purl.org/dc/elements/1.1/"
   xmlns:cc="http://creativecommons.org/ns#"
   xmlns:rdf="http://www.w3.org/1999/02/22-rdf-syntax-ns#"
   xmlns:svg="http://www.w3.org/2000/svg"
   xmlns="http://www.w3.org/2000/svg"
   xmlns:sodipodi="http://sodipodi.sourceforge.net/DTD/sodipodi-0.dtd"
   xmlns:inkscape="http://www.inkscape.org/namespaces/inkscape"
   width="1920"
   height="1080"
   viewBox="0 0 508.00002 285.75"
   version="1.1"
   id="svg8"
   inkscape:version="0.92.1 r15371"
   sodipodi:docname="Slide Background Transparent.svg">
  <defs
     id="defs2" />
  <sodipodi:namedview
     id="base"
     pagecolor="#ffffff"
     bordercolor="#666666"
     borderopacity="1.0"
     inkscape:pageopacity="0.0"
     inkscape:pageshadow="2"
     inkscape:zoom="0.35"
     inkscape:cx="400"
     inkscape:cy="560"
     inkscape:document-units="mm"
     inkscape:current-layer="layer1"
     showgrid="false"
     units="px" />
  <metadata
     id="metadata5">
    <rdf:RDF>
      <cc:Work
         rdf:about="">
        <dc:format>image/svg+xml</dc:format>
        <dc:type
           rdf:resource="http://purl.org/dc/dcmitype/StillImage" />
        <dc:title />
      </cc:Work>
    </rdf:RDF>
  </metadata>
  <g
     inkscape:label="Layer 1"
     inkscape:groupmode="layer"
     id="layer1"
     transform="translate(0,-11.24998)">
    <path
       inkscape:connector-curvature="0"
       d="m 21.912786,272.91215 c 0.946144,-0.01 1.494205,0.11495 1.875251,0.6513 0.453658,0.63861 0.291982,2.09779 0.29196,3.16662 -0.0038,2.76957 -0.0075,5.53997 -0.01125,8.30954 -0.295727,1.54963 -1.574499,1.34755 -3.357493,1.3475 -2.024769,0 -4.050147,0 -6.074925,0 -0.908802,0 -2.661442,0.14036 -3.222736,-0.1909 -0.960169,-0.56665 -0.808545,-1.55891 -0.808497,-3.04309 0,-2.20068 0,-4.40203 0,-6.60272 -4.4e-5,-1.16864 -0.156565,-2.4221 0.370559,-3.08801 0.529316,-0.66869 1.506085,-0.55027 2.683749,-0.55024 2.084657,0 4.16994,0 6.254587,0 0.01064,-2.04238 0.225348,-3.69053 -0.943244,-4.61515 -0.270042,-0.21368 -0.573135,-0.39149 -0.93201,-0.51655 -1.791834,-0.62442 -3.209455,0.76566 -3.503473,2.11107 -0.116765,0.53442 -0.03535,1.26928 -0.03366,1.86403 -0.666184,0 -1.332579,0 -1.998768,0 -0.0078,-0.73358 -0.0692,-1.59101 0.06736,-2.22335 0.384059,-1.77825 1.410631,-2.95182 2.964473,-3.55964 0.79653,-0.31158 2.061108,-0.42034 2.986938,-0.13475 0.544864,0.16807 1.029622,0.41027 1.448544,0.70744 0.941318,0.66773 1.590833,1.66033 1.875254,2.98695 0.08657,0.40377 0.06736,0.88855 0.06738,1.36994 0,0.66995 0,1.34008 1e-6,2.01001 z m -4.80604,2.36935 c -0.119773,0.03 -0.239568,0.0599 -0.359329,0.0899 -0.256821,0.15594 -0.484072,0.30638 -0.651295,0.55022 -0.05351,0.078 -0.266809,0.5905 -0.30318,0.58393 -0.139502,-0.009 -0.29404,-0.0587 -0.471619,-0.0674 -0.532828,-0.0262 -0.887495,0.55361 -1.021854,0.98816 -0.04098,0.13255 -0.01473,0.69756 -0.05614,0.7299 -0.22091,0.13323 -0.482366,0.22292 -0.640065,0.44917 -0.507158,0.72763 -0.455061,1.81959 0.190896,2.42549 0.14865,0.13942 0.383765,0.2279 0.583917,0.28073 0.145952,-0.004 0.291967,-0.007 0.437923,-0.011 0.118819,0.31492 0.429899,0.40497 0.662515,0.60638 0.0786,0.0899 0.157224,0.17966 0.235812,0.2695 0.254504,0.23578 0.509084,0.47165 0.763578,0.70743 0.249776,0.21374 0.617028,0.34268 0.752348,0.67375 0.116924,0.28607 -0.07921,1.06386 -0.179663,1.28011 0.385497,0 0.771102,0 1.156602,0 0,-0.004 0,-0.007 0,-0.011 -0.11778,-0.29757 -0.222081,-0.72576 -0.190896,-1.02184 0.03566,-0.33865 -0.104733,-0.81505 0.101052,-1.11168 0.279189,-0.40242 1.053672,-0.76984 1.471009,-1.03308 0.123516,-0.10101 0.247056,-0.20213 0.370559,-0.30318 0.02233,-0.011 0.324666,-0.0506 0.336873,-0.0449 0.282664,-0.12716 0.558646,-0.2828 0.74113,-0.55024 0.346493,-0.50784 0.512776,-1.31984 0.291945,-1.96509 -0.07532,-0.2201 -0.285776,-0.46348 -0.336875,-0.62883 -0.02952,-0.0955 0.06895,-0.44914 0.04493,-0.60638 -0.05747,-0.37599 -0.186774,-0.68357 -0.393024,-0.95448 -0.154419,-0.20283 -0.419915,-0.33617 -0.662515,-0.40425 -0.142221,0 -0.284481,0 -0.426707,0 -0.05988,-0.0523 -0.119774,-0.10479 -0.179663,-0.1572 -0.112277,-0.0523 -0.224588,-0.10479 -0.33687,-0.15722 -0.267681,-0.088 -0.566173,0.0775 -0.718665,-0.0336 -0.224883,-0.43945 -0.725188,-0.54002 -1.212735,-0.57269 z m 0.954471,6.31078 c 0.163698,0.0487 0.297092,0.17195 0.460391,0.21334 -0.07633,0.22935 -0.242032,0.62001 -0.505306,0.6513 -0.08573,-0.20784 -0.02047,-0.5429 -0.01125,-0.80849 0.02768,-0.017 0.03777,-0.0311 0.05615,-0.0561 z m 0.595136,0.24704 c 0.101052,0.004 0.202141,0.007 0.303189,0.011 -0.111458,0.13245 -0.269042,0.26366 -0.426703,0.3481 -0.01497,-0.007 -0.02997,-0.0149 -0.04491,-0.0225 0.05614,-0.11225 0.11229,-0.2246 0.168429,-0.33687 z m -2.919556,0.0786 c 0.08234,0.004 0.164698,0.007 0.247041,0.011 0.02158,0.0156 0.0067,10e-4 0.02245,0.0224 0.04491,0.14971 0.08984,0.29946 0.134744,0.44917 -0.153566,-0.10602 -0.328044,-0.30116 -0.426705,-0.46041 0.0075,-0.007 0.01497,-0.0149 0.02245,-0.0224 z m 0.39302,0.0449 c 0.167114,0.0737 0.311495,0.17056 0.516537,0.21336 0.114503,0.3445 0.454537,0.60339 0.516537,0.96569 -0.01497,0.004 -0.02997,0.007 -0.04491,0.011 -0.101052,-0.0636 -0.202138,-0.12727 -0.303191,-0.19089 -0.322531,-0.23649 -0.627745,-0.53014 -0.684968,-0.9994 z m 1.122907,0.17966 c 0.01125,0.004 0.02245,0.007 0.03366,0.011 -0.02436,0.15759 0.04658,0.52451 -0.04491,0.58393 -0.01497,0.004 -0.02992,0.007 -0.04491,0.011 -0.102263,-0.15616 -0.23598,-0.2866 -0.258261,-0.52776 0.0038,-0.007 0.0075,-0.0149 0.01125,-0.0225 0.111299,-3.6e-4 0.241517,-0.0165 0.30319,-0.0561 z"
       class="cls-1"
       id="path6"
       style="fill:#2165b6;fill-opacity:1;stroke-width:0.26458332"
       inkscape:export-xdpi="90"
       inkscape:export-ydpi="90" />
    <text
       xml:space="preserve"
       style="font-style:normal;font-weight:normal;font-size:10.58333302px;line-height:1.25;font-family:sans-serif;letter-spacing:0px;word-spacing:0px;fill:#2165b6;fill-opacity:1;stroke:none;stroke-width:0.26458332"
       x="27.659771"
       y="282.77179"
       id="text37"><tspan
         sodipodi:role="line"
         id="tspan35"
         x="27.659771"
         y="282.77179"
         style="fill:#2165b6;fill-opacity:1;stroke-width:0.26458332">@LockeData</tspan></text>
    <text
       xml:space="preserve"
       style="font-style:normal;font-weight:normal;font-size:10.58333302px;line-height:1.25;font-family:sans-serif;letter-spacing:0px;word-spacing:0px;fill:#2165b6;fill-opacity:1;stroke:none;stroke-width:0.26458332"
       x="100.71274"
       y="283.27563"
       id="text41"><tspan
         sodipodi:role="line"
         id="tspan39"
         x="100.71274"
         y="283.27563"
         style="fill:#2165b6;fill-opacity:1;stroke-width:0.26458332">itsalocke.com</tspan></text>
    <path
       style="fill:#2165b6;fill-opacity:1;stroke:#e8830c;stroke-width:0.66145831;stroke-linecap:butt;stroke-linejoin:miter;stroke-miterlimit:4;stroke-dasharray:none;stroke-opacity:1"
       d="m 97.155819,272.3863 v 13.89802"
       id="path47"
       inkscape:connector-curvature="0"
       sodipodi:nodetypes="cc" />
  </g>
</svg>
